<?xml version="1.0" standalone="no"?>
<!DOCTYPE svg PUBLIC "-//W3C//DTD SVG 20010904//EN"
 "http://www.w3.org/TR/2001/REC-SVG-20010904/DTD/svg10.dtd">
<svg version="1.0" xmlns="http://www.w3.org/2000/svg"
 width="1000.000000pt" height="1000.000000pt" viewBox="0 0 1000.000000 1000.000000"
 preserveAspectRatio="xMidYMid meet">
<metadata>
Created by potrace 1.11, written by Peter Selinger 2001-2013
</metadata>
<g transform="translate(0.000000,1000.000000) scale(0.100000,-0.100000)"
fill="#000000" stroke="none">
<path d="M8939 9337 c-14 -29 -112 -220 -294 -572 -40 -77 -123 -239 -185
-360 -62 -121 -148 -289 -191 -372 -44 -84 -115 -224 -160 -310 -45 -87 -85
-162 -89 -167 -5 -4 -522 -9 -1151 -10 l-1142 -1 -17 -30 c-9 -16 -39 -73 -67
-125 -27 -52 -72 -135 -98 -185 -26 -49 -68 -128 -93 -175 -24 -47 -57 -107
-72 -135 -15 -27 -56 -104 -90 -170 -34 -66 -65 -124 -70 -130 -4 -5 -42 -77
-85 -160 -43 -82 -95 -181 -117 -218 -21 -38 -38 -71 -38 -73 0 -3 -29 -58
-63 -122 -35 -64 -90 -166 -122 -227 -32 -60 -72 -137 -90 -170 -18 -33 -56
-105 -85 -160 -29 -55 -65 -122 -80 -150 -15 -27 -51 -95 -80 -150 -29 -55
-65 -122 -80 -150 -15 -27 -53 -99 -85 -160 -32 -60 -88 -166 -125 -235 -37
-69 -93 -174 -125 -235 -32 -60 -70 -132 -85 -160 -15 -27 -53 -99 -85 -160
-32 -60 -70 -132 -85 -160 -15 -27 -56 -104 -91 -170 -35 -66 -78 -147 -95
-180 -18 -33 -54 -100 -79 -150 -26 -49 -60 -112 -75 -140 -39 -73 -95 -177
-200 -375 -52 -96 -101 -188 -110 -205 l-17 -30 -1364 -2 c-750 -1 -1372 -2
-1383 -3 -13 0 -16 -3 -9 -12 6 -7 77 -143 158 -303 81 -159 178 -348 215
-420 37 -71 120 -233 185 -360 150 -294 273 -534 388 -757 l92 -178 1356 0
1356 0 14 28 c7 15 23 43 35 62 11 19 39 69 61 110 42 77 191 350 235 430 22
40 203 370 285 520 17 30 41 75 55 100 14 25 41 74 60 110 19 36 46 85 60 110
14 25 54 97 88 160 35 63 75 135 90 160 15 25 27 48 28 53 1 4 7 15 12 25 16
26 525 954 577 1052 25 47 86 156 134 243 49 87 89 159 89 162 0 2 15 30 34
62 18 32 49 88 70 125 20 38 52 98 72 135 21 38 40 73 44 78 5 6 28 48 52 95
25 47 54 101 65 120 11 19 37 67 58 105 20 39 47 88 60 110 12 22 37 67 55
100 134 248 313 572 320 579 5 5 498 9 1150 9 l1140 0 19 31 c10 17 74 139
141 271 68 132 158 308 200 390 43 83 119 231 170 330 217 422 296 577 353
685 l59 115 -30 60 c-16 33 -81 161 -143 285 -61 124 -117 234 -122 245 -6 11
-13 27 -17 35 -17 36 -441 882 -461 920 -4 8 -65 130 -135 270 -69 140 -129
258 -133 262 -4 5 -14 -7 -22 -25z"/>
<path d="M5 7491 c-2 -2 39 -87 92 -190 117 -228 249 -486 375 -731 53 -102
150 -291 216 -420 66 -129 172 -336 235 -460 l115 -225 445 -1 445 -1 35 71
c20 39 80 163 135 276 55 113 138 284 185 380 47 96 128 263 180 370 52 107
150 308 217 445 157 320 230 474 230 483 0 7 -2898 10 -2905 3z"/>
</g>
</svg>
